<mxfile host="app.diagrams.net" modified="2024-03-17T16:28:40.876Z" agent="Mozilla/5.0 (X11; Linux x86_64) AppleWebKit/537.36 (KHTML, like Gecko) Chrome/122.0.0.0 Safari/537.36" etag="LRTSuQT2vUquypF9AWwx" version="24.0.7" type="device">
  <diagram name="Page-1" id="w9tMQ3aChhCI8EUzSebx">
    <mxGraphModel dx="2189" dy="793" grid="1" gridSize="10" guides="1" tooltips="1" connect="1" arrows="1" fold="1" page="1" pageScale="1" pageWidth="827" pageHeight="1169" math="0" shadow="0">
      <root>
        <mxCell id="0" />
        <mxCell id="1" parent="0" />
        <mxCell id="FXORcwT6D3acrosOCdyo-4" style="edgeStyle=orthogonalEdgeStyle;rounded=0;orthogonalLoop=1;jettySize=auto;html=1;exitX=0.5;exitY=1;exitDx=0;exitDy=0;entryX=0.5;entryY=0;entryDx=0;entryDy=0;" edge="1" parent="1" source="FXORcwT6D3acrosOCdyo-1">
          <mxGeometry relative="1" as="geometry">
            <mxPoint x="100" y="790" as="targetPoint" />
          </mxGeometry>
        </mxCell>
        <mxCell id="FXORcwT6D3acrosOCdyo-1" value="train_local.py" style="rounded=0;whiteSpace=wrap;html=1;" vertex="1" parent="1">
          <mxGeometry x="40" y="650" width="120" height="60" as="geometry" />
        </mxCell>
        <mxCell id="FXORcwT6D3acrosOCdyo-2" value="main()" style="text;html=1;align=center;verticalAlign=middle;whiteSpace=wrap;rounded=0;" vertex="1" parent="1">
          <mxGeometry x="110" y="720" width="60" height="30" as="geometry" />
        </mxCell>
        <mxCell id="FXORcwT6D3acrosOCdyo-14" style="edgeStyle=orthogonalEdgeStyle;rounded=0;orthogonalLoop=1;jettySize=auto;html=1;" edge="1" parent="1" source="FXORcwT6D3acrosOCdyo-5" target="FXORcwT6D3acrosOCdyo-9">
          <mxGeometry relative="1" as="geometry" />
        </mxCell>
        <mxCell id="FXORcwT6D3acrosOCdyo-5" value="commands.py" style="swimlane;fontStyle=0;childLayout=stackLayout;horizontal=1;startSize=30;horizontalStack=0;resizeParent=1;resizeParentMax=0;resizeLast=0;collapsible=1;marginBottom=0;whiteSpace=wrap;html=1;" vertex="1" parent="1">
          <mxGeometry x="30" y="790" width="140" height="120" as="geometry" />
        </mxCell>
        <mxCell id="FXORcwT6D3acrosOCdyo-6" value="Item 1" style="text;strokeColor=none;fillColor=none;align=left;verticalAlign=middle;spacingLeft=4;spacingRight=4;overflow=hidden;points=[[0,0.5],[1,0.5]];portConstraint=eastwest;rotatable=0;whiteSpace=wrap;html=1;" vertex="1" parent="FXORcwT6D3acrosOCdyo-5">
          <mxGeometry y="30" width="140" height="30" as="geometry" />
        </mxCell>
        <mxCell id="FXORcwT6D3acrosOCdyo-7" value="Item 2" style="text;strokeColor=none;fillColor=none;align=left;verticalAlign=middle;spacingLeft=4;spacingRight=4;overflow=hidden;points=[[0,0.5],[1,0.5]];portConstraint=eastwest;rotatable=0;whiteSpace=wrap;html=1;" vertex="1" parent="FXORcwT6D3acrosOCdyo-5">
          <mxGeometry y="60" width="140" height="30" as="geometry" />
        </mxCell>
        <mxCell id="FXORcwT6D3acrosOCdyo-8" value="Item 3" style="text;strokeColor=none;fillColor=none;align=left;verticalAlign=middle;spacingLeft=4;spacingRight=4;overflow=hidden;points=[[0,0.5],[1,0.5]];portConstraint=eastwest;rotatable=0;whiteSpace=wrap;html=1;" vertex="1" parent="FXORcwT6D3acrosOCdyo-5">
          <mxGeometry y="90" width="140" height="30" as="geometry" />
        </mxCell>
        <mxCell id="FXORcwT6D3acrosOCdyo-9" value="train_multitask_two_tasks.py" style="swimlane;fontStyle=0;childLayout=stackLayout;horizontal=1;startSize=30;horizontalStack=0;resizeParent=1;resizeParentMax=0;resizeLast=0;collapsible=1;marginBottom=0;whiteSpace=wrap;html=1;" vertex="1" parent="1">
          <mxGeometry x="30" y="940" width="200" height="120" as="geometry" />
        </mxCell>
        <mxCell id="FXORcwT6D3acrosOCdyo-11" value="train_model_from_file(Params)" style="text;strokeColor=none;fillColor=none;align=left;verticalAlign=middle;spacingLeft=4;spacingRight=4;overflow=hidden;points=[[0,0.5],[1,0.5]];portConstraint=eastwest;rotatable=0;whiteSpace=wrap;html=1;" vertex="1" parent="FXORcwT6D3acrosOCdyo-9">
          <mxGeometry y="30" width="200" height="30" as="geometry" />
        </mxCell>
        <mxCell id="FXORcwT6D3acrosOCdyo-12" value="datasets_from_params(Params)" style="text;strokeColor=none;fillColor=none;align=left;verticalAlign=middle;spacingLeft=4;spacingRight=4;overflow=hidden;points=[[0,0.5],[1,0.5]];portConstraint=eastwest;rotatable=0;whiteSpace=wrap;html=1;" vertex="1" parent="FXORcwT6D3acrosOCdyo-9">
          <mxGeometry y="60" width="200" height="30" as="geometry" />
        </mxCell>
        <mxCell id="FXORcwT6D3acrosOCdyo-10" value="multitask_trainer_two_tasks.py" style="text;strokeColor=none;fillColor=none;align=left;verticalAlign=middle;spacingLeft=4;spacingRight=4;overflow=hidden;points=[[0,0.5],[1,0.5]];portConstraint=eastwest;rotatable=0;whiteSpace=wrap;html=1;" vertex="1" parent="FXORcwT6D3acrosOCdyo-9">
          <mxGeometry y="90" width="200" height="30" as="geometry" />
        </mxCell>
        <mxCell id="FXORcwT6D3acrosOCdyo-13" value="" style="endArrow=classic;html=1;rounded=0;exitX=0.46;exitY=1.2;exitDx=0;exitDy=0;exitPerimeter=0;" edge="1" parent="1" source="FXORcwT6D3acrosOCdyo-10">
          <mxGeometry width="50" height="50" relative="1" as="geometry">
            <mxPoint x="280" y="870" as="sourcePoint" />
            <mxPoint x="122" y="1190" as="targetPoint" />
          </mxGeometry>
        </mxCell>
        <mxCell id="FXORcwT6D3acrosOCdyo-15" value="" style="endArrow=classic;html=1;rounded=0;entryX=1;entryY=0.5;entryDx=0;entryDy=0;exitX=0;exitY=0.5;exitDx=0;exitDy=0;" edge="1" parent="1" source="FXORcwT6D3acrosOCdyo-16" target="FXORcwT6D3acrosOCdyo-11">
          <mxGeometry width="50" height="50" relative="1" as="geometry">
            <mxPoint x="340" y="1015" as="sourcePoint" />
            <mxPoint x="330" y="820" as="targetPoint" />
          </mxGeometry>
        </mxCell>
        <mxCell id="FXORcwT6D3acrosOCdyo-16" value="parameter_filename" style="rounded=0;whiteSpace=wrap;html=1;" vertex="1" parent="1">
          <mxGeometry x="340" y="1010" width="120" height="60" as="geometry" />
        </mxCell>
        <mxCell id="FXORcwT6D3acrosOCdyo-17" value="/experiment_configs/scicite-experiment-0.05-0.05.json" style="text;html=1;align=center;verticalAlign=middle;whiteSpace=wrap;rounded=0;" vertex="1" parent="1">
          <mxGeometry x="170" y="1070" width="220" height="30" as="geometry" />
        </mxCell>
        <mxCell id="FXORcwT6D3acrosOCdyo-22" style="edgeStyle=orthogonalEdgeStyle;rounded=0;orthogonalLoop=1;jettySize=auto;html=1;entryX=0;entryY=0.5;entryDx=0;entryDy=0;" edge="1" parent="1" source="FXORcwT6D3acrosOCdyo-21" target="FXORcwT6D3acrosOCdyo-10">
          <mxGeometry relative="1" as="geometry" />
        </mxCell>
        <mxCell id="FXORcwT6D3acrosOCdyo-21" value="Read dataset from .json config" style="text;html=1;align=center;verticalAlign=middle;whiteSpace=wrap;rounded=0;" vertex="1" parent="1">
          <mxGeometry x="-240" y="1030" width="100" height="60" as="geometry" />
        </mxCell>
        <mxCell id="FXORcwT6D3acrosOCdyo-20" style="edgeStyle=orthogonalEdgeStyle;rounded=0;orthogonalLoop=1;jettySize=auto;html=1;exitX=0;exitY=0.5;exitDx=0;exitDy=0;entryX=0.5;entryY=0;entryDx=0;entryDy=0;" edge="1" parent="1" source="FXORcwT6D3acrosOCdyo-12" target="FXORcwT6D3acrosOCdyo-21">
          <mxGeometry relative="1" as="geometry">
            <mxPoint x="-130" y="1045" as="targetPoint" />
          </mxGeometry>
        </mxCell>
        <mxCell id="FXORcwT6D3acrosOCdyo-28" style="edgeStyle=orthogonalEdgeStyle;rounded=0;orthogonalLoop=1;jettySize=auto;html=1;" edge="1" parent="1" source="FXORcwT6D3acrosOCdyo-24" target="FXORcwT6D3acrosOCdyo-21">
          <mxGeometry relative="1" as="geometry" />
        </mxCell>
        <mxCell id="FXORcwT6D3acrosOCdyo-24" value="citation_data_reader_scicite.py (scicite_datasetreader)" style="swimlane;fontStyle=0;childLayout=stackLayout;horizontal=1;startSize=30;horizontalStack=0;resizeParent=1;resizeParentMax=0;resizeLast=0;collapsible=1;marginBottom=0;whiteSpace=wrap;html=1;" vertex="1" parent="1">
          <mxGeometry x="-290" y="1160" width="210" height="120" as="geometry" />
        </mxCell>
        <mxCell id="FXORcwT6D3acrosOCdyo-25" value="from_params-&amp;gt;SciciteDatasetReader" style="text;strokeColor=none;fillColor=none;align=left;verticalAlign=middle;spacingLeft=4;spacingRight=4;overflow=hidden;points=[[0,0.5],[1,0.5]];portConstraint=eastwest;rotatable=0;whiteSpace=wrap;html=1;" vertex="1" parent="FXORcwT6D3acrosOCdyo-24">
          <mxGeometry y="30" width="210" height="30" as="geometry" />
        </mxCell>
        <mxCell id="FXORcwT6D3acrosOCdyo-26" value="Item 2" style="text;strokeColor=none;fillColor=none;align=left;verticalAlign=middle;spacingLeft=4;spacingRight=4;overflow=hidden;points=[[0,0.5],[1,0.5]];portConstraint=eastwest;rotatable=0;whiteSpace=wrap;html=1;" vertex="1" parent="FXORcwT6D3acrosOCdyo-24">
          <mxGeometry y="60" width="210" height="30" as="geometry" />
        </mxCell>
        <mxCell id="FXORcwT6D3acrosOCdyo-27" value="Item 3" style="text;strokeColor=none;fillColor=none;align=left;verticalAlign=middle;spacingLeft=4;spacingRight=4;overflow=hidden;points=[[0,0.5],[1,0.5]];portConstraint=eastwest;rotatable=0;whiteSpace=wrap;html=1;" vertex="1" parent="FXORcwT6D3acrosOCdyo-24">
          <mxGeometry y="90" width="210" height="30" as="geometry" />
        </mxCell>
      </root>
    </mxGraphModel>
  </diagram>
</mxfile>
